<svg width="209" height="52" viewBox="0 0 209 52" fill="none" xmlns="http://www.w3.org/2000/svg">
<g filter="url(#filter0_d_3_74)">
<path d="M67.6154 18.9668H70.8296C71.2528 18.9668 71.6586 19.113 71.9578 19.3732C72.257 19.6334 72.4251 19.9863 72.4251 20.3543C73.6508 19.3174 75.2739 18.683 77.3945 18.683C80.5086 18.683 82.8932 20.7289 82.8932 23.3499V33.375H77.9195V25.0691C77.9195 22.9652 76.6939 22.6196 75.6336 22.6196C74.5399 22.6196 73.4463 22.998 72.4193 24.0071V33.37H67.6154V18.9668Z" fill="#003063"/>
<path d="M93.8212 18.6729C98.7528 18.6729 102.003 21.439 102.402 26.1917V26.2056C102.417 26.4223 102.381 26.6395 102.296 26.8437C102.211 27.0478 102.079 27.2347 101.908 27.3927C101.737 27.5507 101.53 27.6766 101.301 27.7625C101.071 27.8483 100.824 27.8924 100.575 27.892H90.6736C90.9549 28.5261 91.4497 29.0716 92.0933 29.4571C92.737 29.8426 93.4994 30.0502 94.281 30.0527C95.1899 30.049 96.0753 29.8015 96.8164 29.3438C97.2439 29.0775 97.7464 28.9169 98.2705 28.8792C98.7946 28.8414 99.3207 28.9279 99.7928 29.1294L101.735 29.9656C100.177 32.1553 97.7926 33.6538 94.2142 33.6538C88.5168 33.6538 85.3663 30.2822 85.3663 26.135C85.3736 22.0432 89.2493 18.6729 93.8212 18.6729ZM97.266 24.8383C97.0021 23.5417 96.0404 22.274 94.0532 22.274C92.0661 22.274 90.9391 23.4836 90.5721 24.8383H97.266Z" fill="#003063"/>
<path d="M104.92 18.9668H107.836C108.336 18.9668 108.815 19.1396 109.169 19.4471C109.523 19.7546 109.721 20.1717 109.721 20.6065C110.882 19.484 112.332 18.7637 114.193 18.7637C114.786 18.7613 115.376 18.8292 115.948 18.9656V21.4769C115.944 21.8442 115.772 22.1951 115.471 22.4526C115.17 22.7101 114.763 22.8532 114.341 22.8505H114.325C112.338 22.8505 110.648 23.5707 109.721 24.7513V33.365H104.92V18.9668Z" fill="#003063"/>
<path d="M124.766 18.6729C126.719 18.6729 128.045 19.2784 129.072 20.1714C129.072 19.8506 129.219 19.5429 129.479 19.316C129.74 19.0892 130.094 18.9618 130.463 18.9618H133.879V31.0315C133.879 35.4966 131.03 38.5503 125.199 38.5503C123.813 38.5451 122.432 38.3926 121.089 38.0962C120.614 37.9893 120.194 37.7482 119.895 37.4109C119.596 37.0736 119.434 36.6593 119.435 36.2332V33.7686C120.727 34.2012 122.549 34.7776 124.636 34.7776C127.652 34.7776 129.076 33.539 129.076 31.5802V31.0327C128.049 31.869 126.724 32.4732 124.77 32.5022C120.165 32.5022 117.117 29.3627 117.117 25.5648C117.113 21.7846 120.16 18.6729 124.766 18.6729ZM122.082 25.5585C122.082 27.028 123.042 28.6122 125.46 28.6122C126.819 28.6122 128.342 27.805 129.072 27.1718V24.2329C128.309 23.3399 126.819 22.5616 125.46 22.5616C123.042 22.5616 122.082 24.0601 122.082 25.5585Z" fill="#003063"/>
<path d="M137.189 18.9668H139.778C140.365 18.9668 140.929 19.1697 141.344 19.5309C141.759 19.8921 141.993 20.382 141.993 20.8929V33.37H137.189V18.9668Z" fill="#003063"/>
<path d="M168.065 18.6729C170.337 18.6829 172.513 19.4722 174.12 20.8695C175.727 22.2667 176.635 24.159 176.646 26.135C176.646 30.2822 172.77 33.6538 168.065 33.6538C165.773 33.6521 163.574 32.8594 161.953 31.4497C160.332 30.04 159.421 28.1286 159.419 26.135C159.419 22.0432 163.294 18.6729 168.065 18.6729ZM168.098 29.9089C170.65 29.9089 171.677 27.863 171.677 26.135C171.677 24.4069 170.65 22.4178 168.098 22.4178C165.515 22.4178 164.388 24.4057 164.388 26.135C164.388 27.8643 165.515 29.9089 168.098 29.9089Z" fill="#003063"/>
<path d="M181.89 18.9668C182.181 18.9666 182.469 19.0163 182.737 19.1131C183.006 19.2098 183.25 19.3517 183.456 19.5306C183.662 19.7094 183.825 19.9218 183.936 20.1556C184.048 20.3893 184.105 20.6399 184.105 20.8929V27.2626C184.105 29.3665 185.364 29.7121 186.325 29.7121C187.486 29.7121 188.578 29.5393 189.605 28.6173V18.9668H194.407V33.3649H191.463C191.219 33.3651 190.978 33.3235 190.753 33.2425C190.527 33.1615 190.323 33.0426 190.151 32.8928C189.978 32.743 189.842 32.5651 189.748 32.3692C189.655 32.1734 189.607 31.9636 189.608 31.7517C188.985 32.3603 188.219 32.8452 187.361 33.1734C186.504 33.5016 185.575 33.6654 184.638 33.6538C181.524 33.6538 179.14 31.6079 179.14 28.9868V18.9668H181.89Z" fill="#003063"/>
<path d="M158.093 18.8482V21.3431C158.093 22.0368 157.796 22.7055 157.259 23.2187L150.507 29.6806H158.093V31.3279C158.093 31.8387 157.86 32.3286 157.444 32.6898C157.029 33.051 156.466 33.2539 155.878 33.2539H144.312V30.7577C144.312 30.0641 144.609 29.3953 145.146 28.8821L151.898 22.4203H144.312V20.7806C144.312 20.2697 144.545 19.7798 144.961 19.4186C145.376 19.0574 145.94 18.8545 146.527 18.8545L158.093 18.8482Z" fill="#003063"/>
<path d="M56.8151 18.3853C61.7467 18.3853 64.9972 21.1502 65.3947 25.9041V25.9167C65.4099 26.1335 65.3739 26.3506 65.289 26.5548C65.204 26.759 65.0718 26.9458 64.9005 27.1039C64.7293 27.2619 64.5226 27.3877 64.2932 27.4736C64.0639 27.5595 63.8168 27.6036 63.5671 27.6032H53.6676C53.9487 28.238 54.4441 28.7842 55.0887 29.1698C55.7333 29.5554 56.4969 29.7625 57.2792 29.7638C58.1878 29.7608 59.0732 29.5141 59.8147 29.0575C60.2419 28.7912 60.7441 28.6305 61.2679 28.5926C61.7917 28.5546 62.3176 28.6407 62.7896 28.8418L64.7332 29.6793C63.1754 31.869 60.7908 33.3662 57.2125 33.3662C51.5151 33.3662 48.3646 29.9959 48.3646 25.8474C48.3675 21.7556 52.2432 18.3853 56.8151 18.3853ZM60.26 24.5495C59.996 23.2553 59.0343 21.9864 57.0472 21.9864C55.06 21.9864 53.933 23.196 53.566 24.5495H60.26Z" fill="#003063"/>
<path d="M30.8951 13.9214V27.9223L15.6651 13.9214H30.8951ZM32.3456 12.6601H15.5738C15.2978 12.66 15.0279 12.7302 14.7974 12.8621C14.5669 12.9939 14.3859 13.1816 14.2768 13.402C14.1677 13.6224 14.1352 13.8658 14.1835 14.102C14.2317 14.3382 14.3586 14.557 14.5483 14.7312L32.3456 31.0832V12.6601Z" fill="#FFCC00"/>
<path d="M24.1606 24.2089L39.3906 38.2022H24.1606V24.2089ZM22.7101 21.0417V39.4635H39.4848C39.7607 39.4636 40.0307 39.3934 40.2612 39.2615C40.4917 39.1297 40.6727 38.9419 40.7818 38.7216C40.8909 38.5012 40.9233 38.2578 40.8751 38.0216C40.8269 37.7854 40.7 37.5666 40.5103 37.3924L22.7101 21.0417Z" fill="#FFCC00"/>
<path d="M32.3456 12.6601L40.3609 19.6302C41.0441 20.2246 41.4279 21.0306 41.4279 21.871C41.4279 22.7114 41.0441 23.5174 40.3609 24.1118L22.713 39.4635L14.8485 32.6245C14.1688 32.0338 13.7851 31.2334 13.781 30.3977C13.777 29.5621 14.1528 28.7589 14.8268 28.1632L32.3456 12.6601Z" fill="#FFCC00"/>
</g>
<defs>
<filter id="filter0_d_3_74" x="-4" y="0.677429" width="216.184" height="58.77" filterUnits="userSpaceOnUse" color-interpolation-filters="sRGB">
<feFlood flood-opacity="0" result="BackgroundImageFix"/>
<feColorMatrix in="SourceAlpha" type="matrix" values="0 0 0 0 0 0 0 0 0 0 0 0 0 0 0 0 0 0 127 0" result="hardAlpha"/>
<feOffset dy="4"/>
<feGaussianBlur stdDeviation="2"/>
<feComposite in2="hardAlpha" operator="out"/>
<feColorMatrix type="matrix" values="0 0 0 0 0 0 0 0 0 0 0 0 0 0 0 0 0 0 0.25 0"/>
<feBlend mode="normal" in2="BackgroundImageFix" result="effect1_dropShadow_3_74"/>
<feBlend mode="normal" in="SourceGraphic" in2="effect1_dropShadow_3_74" result="shape"/>
</filter>
</defs>
</svg>
